<svg width="72" height="72" viewBox="0 0 72 72" fill="none" xmlns="http://www.w3.org/2000/svg">
<g clip-path="url(#clip0_387_643)">
<path d="M24.8 20.1H42.1L46 0L28.3 14L8.6 3.1L16.4 24.2L0 39.6L22.5 38.7L24.8 43.8V20.1Z" fill="#3558A8"/>
<path d="M57.3998 71.7001H71.4998L59.4998 54.3001L60.5998 53.8001C63.6998 52.5001 66.0998 50.6001 67.8998 48.1001C69.6998 45.7001 70.5998 42.6001 70.5998 38.8001V38.7001C70.5998 33.9001 69.1998 30.1001 66.2998 27.4001C64.6998 25.7001 62.4998 24.4001 59.8998 23.5001C57.2998 22.6001 53.9998 22.1001 50.0998 22.1001H26.7998V71.8001H39.0998V56.1001H46.8998L57.3998 71.7001ZM39.0998 32.5001H49.4998C52.0998 32.5001 54.1998 33.1001 55.7998 34.2001C57.3998 35.4001 58.2998 37.2001 58.2998 39.6001V39.7001C58.2998 41.9001 57.4998 43.6001 55.8998 44.9001C54.3998 46.2001 52.2998 46.8001 49.5998 46.8001H39.0998V32.5001Z" fill="#786F71"/>
</g>
<defs>
<clipPath id="clip0_387_643">
<rect width="71.5" height="71.8" fill="white"/>
</clipPath>
</defs>
</svg>
