<?xml version="1.0" encoding="utf-8"?>
<!-- Generator: Adobe Illustrator 17.1.0, SVG Export Plug-In . SVG Version: 6.00 Build 0)  -->
<!DOCTYPE svg PUBLIC "-//W3C//DTD SVG 1.1//EN" "http://www.w3.org/Graphics/SVG/1.1/DTD/svg11.dtd">
<svg version="1.1" id="Ebene_1" xmlns="http://www.w3.org/2000/svg" xmlns:xlink="http://www.w3.org/1999/xlink" x="0px" y="0px"
	 viewBox="0 0 215.4 73.7" enable-background="new 0 0 215.4 73.7" xml:space="preserve">
<g>
	<path fill="#786F71" d="M96.9,73.7c-3.1,0-6-0.5-8.6-1.5c-2.6-1-4.9-2.4-6.8-4.2c-1.9-1.8-3.4-4-4.4-6.5c-1.1-2.6-1.6-5.4-1.6-8.5
		v-0.1c0-2.9,0.5-5.6,1.5-8.2c1-2.5,2.4-4.7,4.2-6.6c1.8-1.9,3.9-3.4,6.4-4.5c2.5-1.1,5.2-1.6,8.1-1.6c3.4,0,6.4,0.6,9,1.8
		c2.5,1.2,4.6,2.8,6.3,4.8c1.6,2,2.9,4.3,3.7,6.9c0.8,2.6,1.2,5.4,1.2,8.4c0,0.4,0,0.9,0,1.4c0,0.5,0,1-0.1,1.5H89
		c0.5,2.2,1.6,3.9,3.1,4.9c1.5,1.1,3.4,1.6,5.6,1.6c1.7,0,3.2-0.3,4.6-1c1.4-0.6,2.8-1.7,4.2-3.1l7.8,6.4c-1.9,2.5-4.3,4.4-7.1,5.9
		C104.3,73,100.9,73.7,96.9,73.7z M102.6,49.5c-0.2-2.2-1-4-2.2-5.3c-1.2-1.3-2.8-2-4.7-2c-1.9,0-3.4,0.7-4.6,2
		c-1.2,1.3-2,3.1-2.4,5.3H102.6z"/>
	<path fill="#231F20" d="M123.5,21.1h22c2.9,0,5.6,0.4,7.8,1.2c2.3,0.8,4.2,1.9,5.6,3.4c2.2,2.3,3.3,5.1,3.3,8.3V34
		c0,1.7-0.2,3.2-0.7,4.5c-0.5,1.3-1.1,2.4-1.9,3.4s-1.7,1.8-2.6,2.4c-1,0.7-2,1.2-3,1.7c1.5,0.4,3,1,4.3,1.7
		c1.4,0.7,2.5,1.6,3.5,2.6c1,1,1.8,2.2,2.4,3.5c0.6,1.4,0.9,2.9,0.9,4.7v0.1c0,2.2-0.4,4.2-1.3,6c-0.9,1.8-2.1,3.2-3.8,4.4
		c-1.6,1.2-3.6,2.1-5.9,2.8c-2.3,0.6-4.9,1-7.7,1h-22.9V21.1z M144.5,44c3.5,0,6.4-0.8,8.6-2.3c2.2-1.5,3.3-3.8,3.3-6.9v-0.1
		c0-2.5-1-4.6-2.9-6.1c-2-1.5-4.8-2.3-8.5-2.3h-15.7V44H144.5z M146.6,67.5c3.9,0,7-0.8,9.3-2.4c2.3-1.6,3.4-3.9,3.4-6.8v-0.1
		c0-2.8-1.2-5-3.5-6.5c-2.3-1.6-5.7-2.3-10.2-2.3h-16.3v18.2H146.6z"/>
	<path fill="#231F20" d="M174.6,20h6.5v6.3h-6.5V20z M175,34.6h5.7v38.2H175V34.6z"/>
	<path fill="#231F20" d="M192.2,18.9h5.7v53.9h-5.7V18.9z"/>
	<path fill="#231F20" d="M209.4,18.9h5.7v53.9h-5.7V18.9z"/>
	<polygon fill="#3558A8" points="25.2,20.1 42.5,20.1 46.4,0 28.7,14 9,3.1 16.8,24.2 0.4,39.6 22.9,38.7 25.2,43.8 	"/>
	<path fill="#786F71" d="M57.8,71.7h14.1L59.9,54.3l1.1-0.5c3.1-1.3,5.5-3.2,7.3-5.7c1.8-2.4,2.7-5.5,2.7-9.3v-0.1
		c0-4.8-1.4-8.6-4.3-11.3c-1.6-1.7-3.8-3-6.4-3.9c-2.6-0.9-5.9-1.4-9.8-1.4H27.2v49.7h12.3V56.1h7.8L57.8,71.7z M39.5,32.5h10.4
		c2.6,0,4.7,0.6,6.3,1.7c1.6,1.2,2.5,3,2.5,5.4v0.1c0,2.2-0.8,3.9-2.4,5.2c-1.5,1.3-3.6,1.9-6.3,1.9H39.5V32.5z"/>
</g>
</svg>
